<svg width="281" height="155" viewBox="0 0 281 155" fill="none" xmlns="http://www.w3.org/2000/svg">
<path fill-rule="evenodd" clip-rule="evenodd" d="M140.5 122.646C149.626 109.933 155 94.344 155 77.5C155 60.656 149.626 45.0671 140.5 32.354C154.565 12.762 177.542 0 203.5 0C246.302 0 281 34.6979 281 77.5C281 120.302 246.302 155 203.5 155C177.542 155 154.565 142.238 140.5 122.646ZM140.5 122.646C126.435 142.238 103.458 155 77.5 155C34.6979 155 0 120.302 0 77.5C0 34.6979 34.6979 0 77.5 0C103.458 0 126.435 12.762 140.5 32.354C131.374 45.0671 126 60.656 126 77.5C126 94.344 131.374 109.933 140.5 122.646Z" fill="url(#paint0_linear_6_48)"/>
<defs>
<linearGradient id="paint0_linear_6_48" x1="175.5" y1="0" x2="175.5" y2="155" gradientUnits="userSpaceOnUse">
<stop stop-color="#F45204"/>
<stop offset="1" stop-color="#E58C1E"/>
</linearGradient>
</defs>
</svg>
